<svg id="a755b70f-d32e-4c16-af05-cf56c8ee4b1b" data-name="Layer 1" xmlns="http://www.w3.org/2000/svg" viewBox="0 0 363.59 223.85"><title>cl-logo</title><path d="M32.81,166.43a2.54,2.54,0,0,0-2.78-2q-3.95,0-6.32,3.94a13.28,13.28,0,0,0-2.17,7.21,9.51,9.51,0,0,0,1.67,5.94A5.89,5.89,0,0,0,28.42,184q6.44,0,12.71-8.82a78.68,78.68,0,0,0,5.71-9.54,17.61,17.61,0,0,1-3.05-.94,57.8,57.8,0,0,1-6.49,10.65q-5.32,7-9.43,7c-.34,0-.5-.12-.5-.36s.22-.39.66-.44a12.17,12.17,0,0,0,1.67-.37q3.66-1.44,8-7.21a59.2,59.2,0,0,0,5.54-9.48c-2.47-1.19-3.71-2.46-3.71-3.83a2.42,2.42,0,0,1,1-1.86,3.58,3.58,0,0,1,2.3-.86,4.75,4.75,0,0,1,2.75,1.11,57.8,57.8,0,0,0,3.94-16.37,38.63,38.63,0,0,0-10.15,1.89,19.08,19.08,0,0,0-8.21,4.88,6.52,6.52,0,0,0-2.11,4.72q0,4.44,4.66,6.21a9.2,9.2,0,0,0,2.22.67q.33.1.33.33c0,.15-.15.18-.44.11H35.8a9.68,9.68,0,0,1-6.13-2.61A7.56,7.56,0,0,1,26.54,153a5.91,5.91,0,0,1,1.94-4.27,20,20,0,0,1,9.18-5,54.51,54.51,0,0,1,12-1.94v-3.55c0-.29.11-.44.33-.44s.34.57.34,1.72v2.22h2.49a44.53,44.53,0,0,1,8.33.83,22.75,22.75,0,0,1,8,3.27q4.22,2.94,4.22,7.13t-4,7.41q-6,4.94-17.54,5.49c.52.71,1.26,1.72,2.22,3q3.23,4.4,4.94,6.61,4.6,6.27,7.57,8.32a9.43,9.43,0,0,0,5,2.05q3,0,3-3.8a11.41,11.41,0,0,0-2.28-6.91.47.47,0,0,1-.17-.3c0-.09.09-.14.25-.14s.33.13.48.39a9.79,9.79,0,0,1,2.6,6.55A6.13,6.13,0,0,1,73.86,186a5.22,5.22,0,0,1-4,1.72q-3.66,0-7.66-3.5-4.77-4.11-8.71-12.48l-2.88-5.83h-.94q-9.1,18.75-21,18.76A8.49,8.49,0,0,1,22,182a10,10,0,0,1-2.44-7.05,12.7,12.7,0,0,1,2.75-8,8.61,8.61,0,0,1,7.13-3.55,4.06,4.06,0,0,1,2.33.72A2,2,0,0,1,33,166C33,166.26,32.92,166.39,32.81,166.43Zm9.93-7.83c-1,0-1.56.57-1.56,1.7s.87,2.17,2.61,3.13a37.86,37.86,0,0,0,1.55-3.77A5.27,5.27,0,0,0,42.74,158.6Zm5.54,3.94a18.66,18.66,0,0,0-2.44-2.44c-.55,1.37-1.07,2.55-1.55,3.55a12,12,0,0,0,3.11.84Zm12.88.89q9.48-2.88,9.48-9.37,0-3.72-3.66-6.72a18.91,18.91,0,0,0-7.27-3.66,32.76,32.76,0,0,0-8.37-1.05H50.28a56.42,56.42,0,0,1-4.16,16.75,21.32,21.32,0,0,1,2.44,2.39,70.11,70.11,0,0,0,3.55-11.6c.15-.81.26-1.35.33-1.61a2,2,0,0,1,2.17-1.66c.66,0,1,.27,1,.83a16.78,16.78,0,0,1-.45,2.33,72.85,72.85,0,0,1-4.66,14l.39.5A39,39,0,0,0,61.16,163.43Z" transform="translate(0 0)" style="fill:#1d1d1b"/><path d="M84.9,165.82l.17-1.06a2,2,0,0,0-.58-1.47,1.87,1.87,0,0,0-1.36-.58q-.67,6.76-3.28,10.38h1.72a2.47,2.47,0,0,1-1.08.44,1.41,1.41,0,0,1-.5-.06.94.94,0,0,0-.3-.05s-.07.16-.31.36l-2.08,1.8a5.08,5.08,0,0,1-3.22,1.5c-1.44,0-2.16-.92-2.16-2.77a11.94,11.94,0,0,1,2.55-6.94,12,12,0,0,1-.89-4.58,8.81,8.81,0,0,1,1-4.19c1.22-2.33,2.73-3.49,4.55-3.49q3.44,0,4,5.88a2.57,2.57,0,0,1,2.77,2.89c0,1.51-.24,2.27-.72,2.27C85,166.15,84.9,166,84.9,165.82Zm-10,2.88A10.73,10.73,0,0,0,73,173.61c0,1.2.41,1.81,1.22,1.81,1,0,2.2-.78,3.6-2.33C76.63,172.94,75.64,171.48,74.86,168.7Zm4.27-12.37q-1.77,0-3.27,3.5a9.86,9.86,0,0,0-1,4,18.15,18.15,0,0,0,.17,2.88q3.39-4.55,7.1-5.66C81.44,157.92,80.43,156.33,79.13,156.33Zm3.11,6.32a9.79,9.79,0,0,0-3.8,2.25,12.53,12.53,0,0,0-3.19,3.3q1.17,4.22,2.83,4.61A13.52,13.52,0,0,0,80.82,168,16.47,16.47,0,0,0,82.24,162.65Z" transform="translate(0 0)" style="fill:#1d1d1b"/><path d="M105.15,169.26c.11,0,.17.08.17.25a.85.85,0,0,1-.23.52q-5,7.44-7.71,7.44a2.39,2.39,0,0,1-2.24-1.42,6.61,6.61,0,0,1-.75-3.16,17.23,17.23,0,0,1,.55-4q-3.5,7.77-7.21,7.77c-1.52,0-2.27-1-2.27-2.94q0-4.72,4.57-9.82t9.13-5.11q2.16,0,2.16,1.89,0,2.33-3.1,4.66A20.36,20.36,0,0,0,96.61,173q0,3.69,1.38,3.69,1.83,0,6.66-7C104.87,169.41,105,169.26,105.15,169.26Zm-6.38-5.83a4.15,4.15,0,0,0,.89-2.44c0-.81-.39-1.22-1.17-1.22q-2.77,0-7.26,5.46t-4.5,8.41c0,.85.41,1.28,1.22,1.28q3.49,0,6.77-7.77a6.74,6.74,0,0,1-1.33.28c-.22,0-.33-.06-.33-.17s.25-.37.77-.55l1.72-1a6,6,0,0,1,1.17-2.47c.7-1,1.37-1.53,2-1.53.23,0,.34.15.34.44A4.58,4.58,0,0,1,98.77,163.43Z" transform="translate(0 0)" style="fill:#1d1d1b"/><path d="M119.74,168.42c.11,0,.17.08.17.23a.7.7,0,0,1-.11.38,7.14,7.14,0,0,1-4.66,3.72,6.05,6.05,0,0,1-1.2,3.28,3.94,3.94,0,0,1-3.32,1.33,6,6,0,0,1-4.36-2.19,6.91,6.91,0,0,1-2.05-4.8c0-1.15.29-1.72.88-1.72.37,0,.75.27,1.12.83a65.46,65.46,0,0,1,4.71-8.77c1.3-2,2.81-3,4.55-3a2.73,2.73,0,0,1,1.3.41c.5.28.75.59.75.92s-.16.39-.47.39a2.85,2.85,0,0,1-.69-.06h-.45a3.34,3.34,0,0,0-2.19.75,2.07,2.07,0,0,0-.91,1.55A4.33,4.33,0,0,0,113,163l1.33,4.44a17.54,17.54,0,0,1,.78,4.55,4.68,4.68,0,0,0,2.36-.95,11.56,11.56,0,0,0,2-2.38C119.52,168.5,119.63,168.42,119.74,168.42Zm-9.93,7.11a2.93,2.93,0,0,0,2.94-2.17c-3,0-5.21-.61-6.77-1.83a4.74,4.74,0,0,0,1.33,2.64A3.47,3.47,0,0,0,109.81,175.53Zm3-2.83a9.09,9.09,0,0,0,0-1.17,24.86,24.86,0,0,0-.8-4.16,24.73,24.73,0,0,1-.81-4.1,5.48,5.48,0,0,1,.06-1.06q-1.44,1.5-4.72,8c1.56.89,2.72,1.51,3.5,1.86A8.05,8.05,0,0,0,112.81,172.7Z" transform="translate(0 0)" style="fill:#1d1d1b"/><path d="M138.49,158.83c0,.62-3.12,1.83-9.37,3.6-1.67,3.22-2.68,5.27-3.05,6.16a16.93,16.93,0,0,0-1.45,6.6c0,1.22.41,1.83,1.22,1.83,1,0,2.32-.7,3.94-2.1l2.5-2.17a.15.15,0,0,1,.17.17,1.31,1.31,0,0,1-.17.5,13.52,13.52,0,0,1-3,3A6.22,6.22,0,0,1,126,178c-1.84,0-2.77-1.13-2.77-3.38a19.72,19.72,0,0,1,1.22-6,3.85,3.85,0,0,0-2.22-2.27c-.33-.15-.83-.35-1.5-.61s-1.2-.48-1.6-.67a1.11,1.11,0,0,1-.61-1.14.92.92,0,0,1,.77-1h1.5a31.3,31.3,0,0,0,6.16-.67l5.32-11.93a1.77,1.77,0,0,1,1.86-1c1,0,1.47.19,1.47.56q0,.16-2.08,4.74a52.76,52.76,0,0,1-2.3,4.8l-.94.89-.67,1.33q1.33-.39,8.1-2.77a4.12,4.12,0,0,1,.7-.11C138.45,158.72,138.49,158.75,138.49,158.83Zm-12,4.32q-3.11.73-5.6,1.11a7.43,7.43,0,0,1,3.71,3.55Q125.17,166.27,126.51,163.15Z" transform="translate(0 0)" style="fill:#1d1d1b"/><path d="M150.15,169.15s0,0,0,.16a3.54,3.54,0,0,1-.44.95,18.45,18.45,0,0,1-5,5.13,10.69,10.69,0,0,1-6.15,2.35c-2.63,0-3.94-1.69-3.94-5.1a18.55,18.55,0,0,1,.39-3.66,3.93,3.93,0,0,1-.89-1.22.85.85,0,0,0,.28.14l.41.16a1.88,1.88,0,0,0,.42.14,11.66,11.66,0,0,1,3.38-5.6c1.89-1.92,3.72-2.89,5.49-2.89.41,0,.61,0,.61.14s-.26.29-.77.59a12.08,12.08,0,0,0-3.83,3.44,16.09,16.09,0,0,0-2.72,4.65l.11.12a8.53,8.53,0,0,0,5.55-2.56c1.92-1.7,2.89-3.44,2.89-5.21a2.78,2.78,0,0,0-.42-1.47,1.47,1.47,0,0,0-1.36-.69,4.78,4.78,0,0,0-2.36.86,9.93,9.93,0,0,1-1.55.86c-.1,0-.14,0-.14-.06,0-.44.6-.91,1.8-1.39a8.36,8.36,0,0,1,2.94-.72,2.9,2.9,0,0,1,2,.72,2.49,2.49,0,0,1,.83,2q0,2.94-3.63,5.55a14,14,0,0,1-6.85,2.88,8,8,0,0,0-.44,2.56q0,4.61,3.32,4.6a8.22,8.22,0,0,0,5.11-2,17.09,17.09,0,0,0,4.1-4.64C149.65,169.41,149.92,169.15,150.15,169.15Z" transform="translate(0 0)" style="fill:#1d1d1b"/><path d="M167.62,155.83c.45.11.67.47.67,1.08a8.06,8.06,0,0,1-1.42,3.25,10.86,10.86,0,0,1-2.19,2.88,28.43,28.43,0,0,0-1.86,5.41,24.58,24.58,0,0,0-.8,5.74c0,1.67.48,2.5,1.44,2.5q1.72,0,4-3a43.75,43.75,0,0,0,3-4.5q.21-.33.39-.33a.14.14,0,0,1,.16.16l-.11.34q-4.27,8.26-8,8.26c-2.14,0-3.22-1.55-3.22-4.66a34.72,34.72,0,0,1,1-6.76,60.29,60.29,0,0,1-3.72,6.38q-3,4.09-5.54,4.1c-1.7,0-2.55-1.14-2.55-3.44q0-5.26,5.6-11.21c3.73-3.95,7.4-6.14,11-6.54q4.05-9.93,6.94-15.54a3.48,3.48,0,0,1,3-1.27q.78,0,.78.39Q171.9,147.22,167.62,155.83ZM150.31,172.2c0,1.63.5,2.44,1.5,2.44q4,0,7.93-9a6.26,6.26,0,0,1-1.52.34c-.28,0-.42-.09-.42-.25s.25-.33.75-.5a7.83,7.83,0,0,0,1.86-1c.33-.88.6-1.64.8-2.27s.38-.95.53-.95.39.17.39.5a6.58,6.58,0,0,1-.5,1.84l1-.73,2.33-5.77q-4.22.94-9.43,6.16T150.31,172.2Z" transform="translate(0 0)" style="fill:#1d1d1b"/><path d="M191.37,169.09a.1.1,0,0,1,.11.11q0,.95-3,4.16-2.44,2.44-3.72,2.44a2.5,2.5,0,0,1-2.83-2.83,17,17,0,0,1,1.11-5.32l-1,1.55c-.48.82-.81,1.22-1,1.22s-.11-.1-.11-.3a3.91,3.91,0,0,1,.83-1.42,29.23,29.23,0,0,0,2.44-4.55,26.1,26.1,0,0,1,1.22-2.61c.19-.33.62-.49,1.31-.49s1,.18,1,.55a4.3,4.3,0,0,1-.55,1.67,2.83,2.83,0,0,1-.94,1.27q-2.9,5.78-2.89,8.49c0,1.22.41,1.83,1.22,1.83q2,0,4.39-2.88l1.21-1.42c.15-.17.3-.34.45-.53s.28-.33.39-.44A2.21,2.21,0,0,0,191.37,169.09ZM189.65,154a5.89,5.89,0,0,1,1.5-.56c.18,0,.27.05.27.14a8.74,8.74,0,0,1-1.28,1.58l-.83,1.72c-.33.75-.75,1.11-1.27,1.11-.74,0-1.11-.38-1.11-1.16a2.47,2.47,0,0,1,.75-1.42A5.66,5.66,0,0,1,189.65,154Z" transform="translate(0 0)" style="fill:#1d1d1b"/><path d="M190,177l3.11-14a29.6,29.6,0,0,0-1.22-3c0-.26.31-.5.94-.72a14.07,14.07,0,0,1,3.58-1.05c.53,0,.8.16.8.5q-2.06,5.1-2.83,7.1v.33c0,1.15-.16,1.72-.5,1.72-.07,0-.13-.06-.16-.17q-1.17,3.5-1.61,5.11a56.65,56.65,0,0,1,5.21-7.27q4.17-4.83,6.88-4.83c.85,0,1.28.34,1.28,1q0,.39-3.22,12.21a20.22,20.22,0,0,0,5-5.11c.18-.22.32-.33.41-.33s.14.05.14.17a1,1,0,0,1-.17.44,21.26,21.26,0,0,1-5.93,6.88.89.89,0,0,1-.7.33c-.27,0-.41-.16-.41-.5a36.81,36.81,0,0,1,.66-3.77c.45-2.18.77-3.85,1-5a33.56,33.56,0,0,0,.42-4.33,21,21,0,0,0-5.6,4.77,31.54,31.54,0,0,0-4.41,5.72,14.32,14.32,0,0,0-1.39,3.35c-.2.87-.46,1.31-.78,1.31s-.47-.25-.47-.73Zm3.94-17.36a5.22,5.22,0,0,1-1,.55l.55,1.28Z" transform="translate(0 0)" style="fill:#1d1d1b"/><path d="M255,147.29c0,1.22-.77,2.1-2.33,2.66a10.47,10.47,0,0,1-3.88.67,19.11,19.11,0,0,1-4.66-.62,10.88,10.88,0,0,1-4.27-1.71.31.31,0,0,1-.11-.23c0-.07,0-.11.14-.11a.25.25,0,0,1,.19.06q3,2,8.6,2a8.23,8.23,0,0,0,3.44-.69,2.23,2.23,0,0,0,1.55-2.08q0-2-2.88-3a13.19,13.19,0,0,0-4.5-.72q-6.93,0-9.48,4.5a5.77,5.77,0,0,0-.78,2.88q0,3.39,3.77,5.94,2.5,1.66,6.94,4.44a9.46,9.46,0,0,1,3.71,7.6c0,4.1-2.1,7.4-6.32,9.87a21.88,21.88,0,0,1-11.29,3.11c-4,0-7.2-.7-9.57-2.11a8.09,8.09,0,0,1-4.44-7.4,10,10,0,0,1,3.58-7.94,12.33,12.33,0,0,1,8.29-3.08q2.61,0,2.61.45c0,.07-.3.11-.89.11h-.94a12,12,0,0,0-7.77,2.66,8.77,8.77,0,0,0-3.49,7.3,8.56,8.56,0,0,0,3.16,7.1,11.58,11.58,0,0,0,7.43,2.52,23.87,23.87,0,0,0,9.1-2q8.33-3.33,8.32-10.38a8.16,8.16,0,0,0-3.82-7q-1.23-.89-3.61-2.39c-1.59-1-2.72-1.72-3.38-2.16q-3.78-2.55-3.78-6.21a6.42,6.42,0,0,1,1.83-4.44,4.1,4.1,0,0,0-2.83,1.61,5.44,5.44,0,0,0-1.1,3.22,8,8,0,0,0,3.6,6.54q1.17.89,6.66,4.61a8.71,8.71,0,0,1,3.55,6.88q0,3.93-3.88,7.29a12.11,12.11,0,0,1-7.94,3.36c-.18,0-.28-.06-.28-.17s.13-.33.39-.33a16.93,16.93,0,0,0,2.94-.61,14.61,14.61,0,0,0,5.39-3.88,8.33,8.33,0,0,0,2.38-5.61,8,8,0,0,0-3.49-6.71c-.71-.56-1.79-1.32-3.25-2.3s-2.54-1.73-3.24-2.25a8,8,0,0,1-3.56-6.77,5.19,5.19,0,0,1,1.45-3.63,4.49,4.49,0,0,1,3.44-1.59h.11A14.08,14.08,0,0,1,246,142.79c4.14,0,6.94.91,8.38,2.72A2.83,2.83,0,0,1,255,147.29Z" transform="translate(0 0)" style="fill:#1d1d1b"/><path d="M270.15,173.53v.11c-1.3,1.78-2.72,2.66-4.27,2.66s-2.33-1.37-2.33-4.1c0-1.11.09-2.68.27-4.72a25,25,0,0,1-6.93,7.77L255,176.69a1.57,1.57,0,0,1-1,.22q-.69,0-.69-.33a13.19,13.19,0,0,1,1.8-5.49,34.26,34.26,0,0,0,2.25-5,16.45,16.45,0,0,0,.44-4.3,22.32,22.32,0,0,1-2,3.94q-2.67,4.6-3,4.6c-.22,0-.33-.07-.33-.22l1.66-2.83a32.21,32.21,0,0,0,3.44-7.82c.22-1,.67-1.45,1.33-1.45s1,.85,1,2.53a25.34,25.34,0,0,1-1.44,7.07l-2.33,7.27a30.91,30.91,0,0,0,7.76-8.71q.56-3.89,1.5-5.1a1.6,1.6,0,0,1,1.25-.39c.61,0,.92.2.92.61a4.94,4.94,0,0,1-1.06,3,28.8,28.8,0,0,0-1.22,8.1c0,1.77.56,2.66,1.67,2.66a2.68,2.68,0,0,0,1.69-.72l1.11-.94c.17-.15.23-.22.19-.22S270.15,173.31,270.15,173.53Z" transform="translate(0 0)" style="fill:#1d1d1b"/><path d="M271.37,161.54l1.05.06h1.11a26,26,0,0,0,5.94-.83q6.33-11.65,14-18.25,2.28-2,3.66-2c1.19,0,1.78.9,1.78,2.69a8.34,8.34,0,0,1-1.56,4.91c-.62.86-1.07,1.28-1.33,1.28s-.38-.07-.38-.22A12.41,12.41,0,0,1,296.7,147a7.25,7.25,0,0,0,1.08-3.25,1.13,1.13,0,0,0-1.28-1.27q-2,0-5.55,4a50.61,50.61,0,0,0-5.32,7q-2,3.1-3.89,6.66l8.44-2.78c.15,0,.22,0,.22.12s-.33.48-1,.77a85.72,85.72,0,0,1-8.15,2.89,45.56,45.56,0,0,0-4.44,12.48s-.17,1.48-.5,4.33c-.08.63-.52.94-1.33.94s-1.26-.31-1.34-.94c.3-2.92.45-4.85.45-5.77q0-5.77-1.89-7.66l-1.16-.78a1.26,1.26,0,0,1-.61-1.16C270.43,161.9,270.74,161.54,271.37,161.54Zm7.54.23c-1.47.37-3.51.75-6.1,1.16,1.22.67,1.94,3.31,2.17,7.94A58.58,58.58,0,0,1,278.91,161.77Z" transform="translate(0 0)" style="fill:#1d1d1b"/><path d="M285.63,161.54l1.05.06h1.11a26.09,26.09,0,0,0,5.94-.83q6.31-11.65,14-18.25c1.51-1.3,2.74-2,3.66-2,1.18,0,1.78.9,1.78,2.69a8.34,8.34,0,0,1-1.56,4.91c-.63.86-1.07,1.28-1.33,1.28s-.39-.07-.39-.22A12.41,12.41,0,0,1,311,147a7.17,7.17,0,0,0,1.09-3.25,1.13,1.13,0,0,0-1.28-1.27q-2,0-5.55,4a50.8,50.8,0,0,0-5.33,7q-2,3.1-3.88,6.66l8.44-2.78c.14,0,.22,0,.22.12s-.34.48-1,.77a85,85,0,0,1-8.16,2.89,46.24,46.24,0,0,0-4.44,12.48s-.16,1.48-.5,4.33c-.07.63-.51.94-1.33.94s-1.26-.31-1.33-.94c.3-2.92.45-4.85.45-5.77q0-5.77-1.89-7.66l-1.17-.78a1.28,1.28,0,0,1-.61-1.16C284.68,161.9,285,161.54,285.63,161.54Zm7.54.23c-1.48.37-3.51.75-6.1,1.16,1.22.67,1.94,3.31,2.16,7.94A58.67,58.67,0,0,1,293.17,161.77Z" transform="translate(0 0)" style="fill:#1d1d1b"/><path d="M311.59,165.82l.17-1.06a2,2,0,0,0-.58-1.47,1.87,1.87,0,0,0-1.36-.58q-.68,6.76-3.28,10.38h1.72a2.47,2.47,0,0,1-1.08.44,1.41,1.41,0,0,1-.5-.06.94.94,0,0,0-.3-.05s-.07.16-.31.36l-2.08,1.8a5.08,5.08,0,0,1-3.22,1.5c-1.44,0-2.16-.92-2.16-2.77a11.94,11.94,0,0,1,2.55-6.94,12,12,0,0,1-.89-4.58,8.81,8.81,0,0,1,1-4.19q1.83-3.49,4.54-3.49,3.45,0,4,5.88a2.57,2.57,0,0,1,2.77,2.89c0,1.51-.24,2.27-.72,2.27C311.66,166.15,311.59,166,311.59,165.82Zm-10,2.88a10.73,10.73,0,0,0-1.83,4.91c0,1.2.4,1.81,1.22,1.81,1,0,2.2-.78,3.6-2.33Q302.71,172.87,301.55,168.7Zm4.27-12.37q-1.77,0-3.27,3.5a9.86,9.86,0,0,0-.95,4,18.15,18.15,0,0,0,.17,2.88q3.39-4.55,7.1-5.66C308.13,157.92,307.12,156.33,305.82,156.33Zm3.11,6.32a9.79,9.79,0,0,0-3.8,2.25,12.36,12.36,0,0,0-3.19,3.3c.77,2.81,1.72,4.35,2.83,4.61a13.67,13.67,0,0,0,2.74-4.83A16.47,16.47,0,0,0,308.93,162.65Z" transform="translate(0 0)" style="fill:#1d1d1b"/><path d="M327.51,148.62a3.58,3.58,0,0,0-1,.83q-10.22,19-10.21,24.47c0,1.22.4,1.83,1.22,1.83,1,0,2.48-.82,4.33-2.44l.63-.56c.13-.11.18-.16.14-.16.15,0,.22,0,.22.16a1,1,0,0,1-.22.5c-1.63,2.3-3.29,3.44-5,3.44s-2.78-1-2.78-2.94.95-5.49,2.83-10.6c-.92,1.26-1.57,1.89-1.94,1.89-.11,0-.16,0-.16-.11a19.54,19.54,0,0,1,1.47-2c1-1.27,1.5-2,1.58-2.13a104.35,104.35,0,0,1,5.16-12q3.43-7,4.71-9.32a1.86,1.86,0,0,1,1.86-.94c.94,0,1.42.13,1.42.39S330.36,142.4,327.51,148.62Z" transform="translate(0 0)" style="fill:#1d1d1b"/><path d="M337.28,178.08a2.74,2.74,0,0,0,1.94-.78,3.7,3.7,0,0,1,1-.78c.09,0,.14.06.14.17a1.9,1.9,0,0,1-.11.5,4.16,4.16,0,0,1-3.72,2.16q-2.38,0-5.41-2.63a30.87,30.87,0,0,1-5.07-5.58l-2.11,3.44a12.9,12.9,0,0,1-2.56,3.11,1.69,1.69,0,0,1-1.71,1.28c-.41,0-.61-.15-.61-.45q0-1.54,3.21-9.82l-1.05.11c-.22,0-.33,0-.33-.11,0-.52.55-.79,1.66-.83,2-5,3.39-8.21,4.05-9.76a9.34,9.34,0,0,1-3.66,1.38c-.15,0-.22-.05-.22-.17,0-.36.26-.66.77-.88l.45-.17a19.7,19.7,0,0,0,3.38-2l6.27-14a2.6,2.6,0,0,1,2.61-1.27c.7,0,1.05.2,1.05.61a7.16,7.16,0,0,1-.5,1.5,56.84,56.84,0,0,1-5.21,10.15,14.57,14.57,0,0,0-1.83,2.72c-.56,1.07-1.2,2.33-1.92,3.77s-1.95,4.07-3.69,7.88c.74-.7,1.24-1.06,1.5-1.06s.5.21.72.61a11.53,11.53,0,0,0,1.61-.61c.11-.25.62-1.17,1.53-2.74a24.18,24.18,0,0,1,3.13-4.3q2.61-2.94,4.33-2.94c1.15,0,1.72,1.24,1.72,3.72q0,4.6-10.1,6.93a15.79,15.79,0,0,1-1.16,1.83,27.6,27.6,0,0,0,4.16,5.6C333.65,177,335.58,178.08,337.28,178.08Zm-11.65-7.55a25.3,25.3,0,0,1-1.17-2.27l-.61.05a60.12,60.12,0,0,0-2.27,8.27A36.34,36.34,0,0,0,325.63,170.53ZM335.89,160c0-1-.24-1.55-.72-1.55-.81,0-2.41,1.79-4.77,5.38l-1.39,2.5Q335.9,163.82,335.89,160Z" transform="translate(0 0)" style="fill:#1d1d1b"/><path d="M0,103.11c0-12.2,8.86-24.45,27.24-24.45a46,46,0,0,1,13.68,2l-1.25,8.69H38.6c-.59-3.81-4.46-7-11.06-7-13.68,0-20,11-20,20.7s7.44,20.34,22,20.34c1.31,0,7.5-.18,10.47-6.13H41.1l-2.79,8.27A41.84,41.84,0,0,1,27.42,127C8.57,127,0,115.06,0,103.11Z" transform="translate(0 0)" style="fill:#1d1d1b"/><path d="M65.46,86.84c11.88,0,20.73,8.79,20.73,20s-8.85,20-20.73,20-20.68-8.85-20.68-20S53.58,86.84,65.46,86.84Zm.05,36.81c7.67,0,14.42-7,14.42-16.87C79.93,97.39,73.67,90,65.51,90S51,97.39,51,106.78,57.29,123.65,65.51,123.65Z" transform="translate(0 0)" style="fill:#1d1d1b"/><path d="M101.19,107.47v10.26c0,4.84.54,6.79,5,7.33v.69c-2.49,0-5.47-.1-7.91-.1s-5.33,0-7.73.1v-.69c4.4-.58,4.89-2.59,4.89-7.33V96.07c0-4.74-.49-6.69-4.89-7.23v-.78c3.67,0,9.63,0,13.25,0,7.82,0,11.78,0,14.08-.49a34.25,34.25,0,0,0-.3,4.59c0,1.27.1,3.08.15,4.3l-.53,0C116,93.48,114.93,91,108.77,91c-6.65,0-7.58.29-7.58,5.52V104h5.23c4.84,0,7,0,7.33-3.08h.69c0,2.5,0,3.91,0,4.89s0,2.2,0,4.6h-.69c-.34-2.79-2.59-2.93-7.33-2.93Z" transform="translate(0 0)" style="fill:#1d1d1b"/><path d="M131.45,107.47v10.26c0,4.84.54,6.79,5,7.33v.69c-2.49,0-5.47-.1-7.92-.1s-5.32,0-7.72.1v-.69c4.4-.58,4.89-2.59,4.89-7.33V96.07c0-4.74-.49-6.69-4.89-7.23v-.78c3.67,0,9.63,0,13.25,0,7.82,0,11.78,0,14.08-.49a34.25,34.25,0,0,0-.3,4.59c0,1.27.1,3.08.15,4.3l-.54,0C146.21,93.48,145.19,91,139,91c-6.64,0-7.57.29-7.57,5.52V104h5.23c4.84,0,7,0,7.33-3.08h.69c0,2.5,0,3.91,0,4.89s0,2.2,0,4.6H144c-.34-2.79-2.59-2.93-7.33-2.93Z" transform="translate(0 0)" style="fill:#1d1d1b"/><path d="M161.71,107.47v9.23c0,5.43.09,5.82,7.57,5.82s9.05-1.76,11.3-4.84l.48.29a32.78,32.78,0,0,0-2.63,8.22c-2.69-.54-6.85-.54-13.25-.54-4,0-10.07,0-14.08.15v-.69c4.4-.59,4.89-2.59,4.89-7.33V96.07c0-4.74-.49-6.69-4.89-7.23v-.78c3.66,0,9.63,0,13.25,0,7.82,0,11.78,0,14.08-.49a34.25,34.25,0,0,0-.3,4.59c0,1.27.1,3.08.15,4.3l-.54,0c-1.27-3.08-2.3-5.52-8.46-5.52-6.64,0-7.57.29-7.57,5.52V104h5.08c4.84,0,7,0,7.33-3.08h.69c-.05,2.5-.05,3.91-.05,4.89s0,2.2.05,4.6h-.69c-.34-2.79-2.59-2.93-7.33-2.93Z" transform="translate(0 0)" style="fill:#1d1d1b"/><path d="M194.6,107.47v9.23c0,5.43.1,5.82,7.58,5.82s9-1.76,11.29-4.84l.49.29a32.82,32.82,0,0,0-2.64,8.22c-2.69-.54-6.84-.54-13.24-.54-4,0-10.07,0-14.08.15v-.69c4.4-.59,4.88-2.59,4.88-7.33V96.07c0-4.74-.48-6.69-4.88-7.23v-.78c3.66,0,9.63,0,13.24,0,7.83,0,11.79,0,14.08-.49a36,36,0,0,0-.29,4.59c0,1.27.1,3.08.15,4.3l-.54,0c-1.27-3.08-2.3-5.52-8.46-5.52-6.65,0-7.58.29-7.58,5.52V104h5.09c4.84,0,7,0,7.33-3.08h.69c-.05,2.5-.05,3.91-.05,4.89s0,2.2.05,4.6H207c-.34-2.79-2.59-2.93-7.33-2.93Z" transform="translate(0 0)" style="fill:#1d1d1b"/><path d="M232.54,88.06v.78c-4.5.54-5,2.39-5,7.23V116.7c0,5.43.1,5.82,6.6,5.82,7.48,0,9.05-1.81,11.29-4.89l.49.39a32.15,32.15,0,0,0-2.64,8.12c-2.69-.54-6.84-.54-13.24-.54-4,0-9.1.05-13.11.15v-.69c4.4-.58,4.89-2.59,4.89-7.33V96.07c0-4.74-.49-6.69-4.89-7.23v-.78c2.45,0,5.43,0,7.88,0S230.09,88.06,232.54,88.06Z" transform="translate(0 0)" style="fill:#e30613"/><path d="M248.81,125.65V125c4.4-.58,4.89-2.59,4.89-7.33V96.07c0-4.74-.49-6.69-4.89-7.23v-.78c2.45,0,5.43,0,7.88,0s5.32,0,7.77,0v.78c-4.5.54-5,2.39-5,7.23v21.56c0,4.84.54,6.8,5,7.33v.69c-2.5-.05-5.48-.1-7.92-.1S251.21,125.6,248.81,125.65Z" transform="translate(0 0)" style="fill:#e30613"/><path d="M305,126.43c-9.09-11.05-18.14-19.55-27-30v22.38c0,5.24,2.1,5.53,5,6.07v.78c-2.44,0-4.59,0-7,0s-4.54,0-7,0v-.78c3-.54,5-.74,5-6.07V91.48c-4-4.25-8.31-7.48-11.88-7.48a7.27,7.27,0,0,0-2,.29v-.78c1.42-1.86,4.16-3.42,6-3.42,2.59,0,5.62,2.2,9.14,5.91,5.33,5.63,21,23,27.28,29.82V94.9c0-5.23-2.11-5.52-5-6.06v-.78c2.44,0,4.6,0,7,0s4.55,0,7,0v.78c-3,.54-5,.73-5,6.06v31.48Z" transform="translate(0 0)" style="fill:#e30613"/><path d="M337,100.19l15.22,16.42c4.94,5.35,6.9,7.2,11.42,8.38l-.23.84c-2.5-.18-5.24-.18-6.37-.18-.89,0-2.91,0-4.22.06-1.31-1.25-12.55-14.33-19.81-21.23l-4.28,4.64V116c0,5.89.65,8.27,6.13,8.93v.83c-3-.06-6.67-.12-9.64-.12s-6.48.06-9.4.12v-.83c5.36-.72,6-3.16,6-8.93V89.66c0-5.76-.59-8.14-6-8.8v-1c3,0,6.6.06,9.58.06s6.48-.06,9.46-.06v1c-5.48.66-6.13,2.92-6.13,8.8v13.09l9-9.76c4.46-4.75,7.79-8.26,7.79-10.34,0-1.67-1.72-1.67-3-1.67V79.91c2.62.06,7.61.06,10.29.06s5.29,0,8-.06V81h-.36c-5.29,0-9.46,4.16-15.64,10.83Z" transform="translate(0 0)" style="fill:#e30613"/><path d="M243.65,34.92a5,5,0,0,1-2.52.66,5.18,5.18,0,0,0-2.7.74,133.48,133.48,0,0,1-31.75,18.79c-17.75,7.31-38.62,7.83-58.79,1.46-3.48-1.1-21-7-23.17-14.65-.59-2.06,0-4.11,1.67-6.09,9.53-11.13,25.37-7.4,38.1-4.4l3.5.81c3.52.8,7.16,1.72,10.67,2.61,9.35,2.38,19,4.85,28.56,5.42,5,.3,15.53-.45,19.53-5.44,4.39-5.48,3.64-14.67.37-20.39-2.36-4.13-6.48-7.45-12.26-9.86-8.32-3.47-18.41-4.9-31.8-4.52a92.53,92.53,0,0,0-36.42,8.73,101.82,101.82,0,0,0-30.5,21.79l.19.18a4.15,4.15,0,0,1,2.49-.64,4.28,4.28,0,0,0,2.73-.75A100.51,100.51,0,0,1,150.39,8.19C160,3.61,170.73,1.48,183.23,1.7c9.5.16,21.62,1.09,31,6.92a20.2,20.2,0,0,1,9.33,12.26c1.07,4.28,1.13,10.36-1.92,14.56l-.38.44A8.2,8.2,0,0,1,216,38.66a32.3,32.3,0,0,1-3.64-.07h-.07c-1.42-.1-3-.28-4.75-.56-6.41-1-12.85-2.5-19.07-4-1.89-.45-3.78-.9-5.67-1.33s-3.68-.86-5.47-1.29c-15.24-3.62-29.64-7-44.63-1.44-10.45,3.91-14.93,8.42-13.32,13.42,2.15,6.69,12.09,10.63,17.43,12.75a91.4,91.4,0,0,0,33.8,6.4,100.2,100.2,0,0,0,25.88-3.47,131,131,0,0,0,47.38-24h0Z" transform="translate(0 0)"/><path d="M114.87,219.41a5.67,5.67,0,0,0,1.72-.42c0-.38,0-1.29,0-2v-6.54c0-.89,0-1.69,0-2.29a6.12,6.12,0,0,0-1.74-.47,5.1,5.1,0,0,0-.18-.69c.44,0,2.49,0,3.8,0,1.73,0,4.64,0,5.87,0a3.55,3.55,0,0,0,0,.49,17.61,17.61,0,0,0,.22,2.42,2.88,2.88,0,0,0-.72.15,5.37,5.37,0,0,0-1.18-2,23.72,23.72,0,0,0-3.41-.25.93.93,0,0,0-.74.34c0,.63,0,1.38,0,2.29v2.22c.75,0,1.71,0,2.46-.06.52-.22.76-1.23.89-1.8a3.05,3.05,0,0,0,.36,0,3.46,3.46,0,0,0,.37,0c0,.63-.07,1.75-.07,2.23,0,.78,0,1.6.07,2.24a2.06,2.06,0,0,0-.37,0,1.89,1.89,0,0,0-.36,0c-.13-.58-.37-1.59-.89-1.81-.73-.06-1.62-.06-2.46-.06V217c0,.69,0,1.62,0,2.16a4.26,4.26,0,0,0,1,.11,32,32,0,0,0,3.45-.2,7.29,7.29,0,0,0,1.3-2.46,2.94,2.94,0,0,0,.73.13,18.67,18.67,0,0,0-.36,3.15,1,1,0,0,0,0,.22c-2.51,0-5.44,0-6.22,0H117c-1.06,0-2,0-2.29,0A5.55,5.55,0,0,0,114.87,219.41Z" transform="translate(0 0)" style="fill:#1d1d1b"/><path d="M136.76,206.84c1.08,0,1.81.33,2.42.33a1.27,1.27,0,0,0,.45-.18,1.08,1.08,0,0,0,.32.09,5.16,5.16,0,0,0-.06.58,17.72,17.72,0,0,0,.23,2.61,2.23,2.23,0,0,0-.69.14c-.53-1.78-1.46-2.73-3.1-2.73a2,2,0,0,0-2.06,1.9c0,1.15.59,1.95,2.44,2.68,3,1.19,3.93,2.24,3.93,4.08,0,2.22-2.07,4-4.81,4a7.51,7.51,0,0,1-3.67-.94c0-.87,0-2.12-.09-2.92a2.6,2.6,0,0,0,.72-.13,11.11,11.11,0,0,0,1.05,2.44,3.75,3.75,0,0,0,2.31.67,2.41,2.41,0,0,0,2.62-2.24c0-1.34-.59-2.25-2.92-3.18-2.5-1-3.41-2.07-3.41-3.84S134.42,206.84,136.76,206.84Z" transform="translate(0 0)" style="fill:#1d1d1b"/><path d="M147.72,207.19a1,1,0,0,0,0-.22.44.44,0,0,0,.29-.1,5.5,5.5,0,0,0,1.33.19h8.06a5.11,5.11,0,0,0,1.42-.19.66.66,0,0,0,.32.1,20.2,20.2,0,0,0-.39,3.13,1.06,1.06,0,0,0,0,.24,3.32,3.32,0,0,0-.73-.11c0-.58-.34-2-.86-2.18a24.75,24.75,0,0,0-2.57-.21.36.36,0,0,0-.39.26c0,.58,0,1.46,0,2.35V217c0,.67,0,1.53,0,2a8.9,8.9,0,0,0,1.9.42,5.25,5.25,0,0,0,.19.73l-3.06,0-3,0a5.25,5.25,0,0,0,.19-.73,8.9,8.9,0,0,0,1.9-.42c0-.4,0-1.29,0-2v-6.58c0-.89,0-1.69,0-2.35a.38.38,0,0,0-.37-.26,22.84,22.84,0,0,0-2.58.21c-.52.22-1.15,1.71-1.26,2.29a3.79,3.79,0,0,0-.73-.15A17,17,0,0,0,147.72,207.19Z" transform="translate(0 0)" style="fill:#1d1d1b"/><path d="M176.16,219.34c1.94-1.18,6.5-4.37,6.5-7.75a2.45,2.45,0,0,0-2.54-2.61,4.55,4.55,0,0,0-3.36,1.48,1.53,1.53,0,0,0-.39-.54,5.86,5.86,0,0,1,4.63-2.63,3.58,3.58,0,0,1,3.86,3.61c0,3.23-4.33,5.76-5.69,7.33.39.05,1.34.07,2.29.07s1.59,0,2.31,0a19,19,0,0,0,1.44-1.53,1.55,1.55,0,0,0,.62.28,7.6,7.6,0,0,0-.46,2.73,2.13,2.13,0,0,0,0,.39l-3.51-.05c-2.32,0-4.17,0-5.44.05A2.47,2.47,0,0,0,176.16,219.34Z" transform="translate(0 0)" style="fill:#1d1d1b"/><path d="M200.6,207.31c3.05,0,5.37,2.61,5.37,6.38s-2.27,6.76-5.56,6.76c-2.82,0-5.36-2.57-5.36-6.52S197.73,207.31,200.6,207.31Zm0,12.12c2,0,3-1.89,3-5.5s-1.37-5.6-3.33-5.6-2.92,2.13-2.92,5.36C197.38,217.56,198.63,219.43,200.6,219.43Z" transform="translate(0 0)" style="fill:#1d1d1b"/><path d="M220.71,207.31c3.06,0,5.37,2.61,5.37,6.38s-2.27,6.76-5.55,6.76c-2.82,0-5.37-2.57-5.37-6.52S217.84,207.31,220.71,207.31Zm0,12.12c2,0,3-1.89,3-5.5s-1.36-5.6-3.33-5.6-2.91,2.13-2.91,5.36C217.5,217.56,218.75,219.43,220.71,219.43Z" transform="translate(0 0)" style="fill:#1d1d1b"/><path d="M238.05,223.85a7.54,7.54,0,0,1-2.94-.6,3.29,3.29,0,0,0,.23-.69,8.77,8.77,0,0,0,2.73.46,4.15,4.15,0,0,0,4.35-4.26,3.82,3.82,0,0,0-4.09-3.91,5.87,5.87,0,0,0-2.18.37,2.87,2.87,0,0,0-.34-.65c.62-2.52,1.11-5,1.48-7.24,1.15,0,3,0,5.27,0a4.33,4.33,0,0,0,2.11-.51l.23.21a18.87,18.87,0,0,0-.32,2.15c-.81,0-1.9,0-2.73,0-1.35,0-3,0-3.73,0a40.25,40.25,0,0,0-.88,4l.07,0a2,2,0,0,1,.95-.24c3.68,0,6.18,2,6.18,5.28C244.44,221.12,241.71,223.85,238.05,223.85Z" transform="translate(0 0)" style="fill:#1d1d1b"/></svg>